<svg id="svg" version="1.1" xmlns="http://www.w3.org/2000/svg" xmlns:xlink="http://www.w3.org/1999/xlink" width="400" height="400" viewBox="0, 0, 400,400"><g id="svgg"><path id="path0" d="M186.646 40.441 C 185.351 40.630,183.371 41.302,182.246 41.933 C 181.121 42.565,179.480 43.316,178.600 43.602 C 173.773 45.171,165.924 52.988,163.736 58.404 C 163.239 59.635,162.385 61.442,161.839 62.421 C 160.554 64.722,159.948 68.638,160.029 74.106 C 160.116 79.977,159.925 80.189,154.685 80.050 C 150.525 79.939,146.664 80.658,144.018 82.038 C 142.221 82.974,142.132 82.957,139.255 81.129 C 137.123 79.774,130.870 79.587,128.287 80.801 C 125.585 82.071,121.054 87.071,119.974 89.974 C 119.519 91.198,118.546 93.100,117.812 94.200 C 117.077 95.300,116.179 97.132,115.816 98.271 C 115.452 99.410,114.646 101.045,114.023 101.904 C 113.401 102.764,112.482 104.589,111.982 105.961 C 111.482 107.334,110.589 109.123,109.998 109.939 C 109.408 110.754,108.524 112.497,108.034 113.811 C 107.545 115.125,106.612 117.033,105.961 118.052 C 105.311 119.071,104.351 120.994,103.829 122.327 C 103.306 123.659,102.432 125.346,101.885 126.075 C 101.339 126.804,100.482 128.538,99.982 129.928 C 99.482 131.319,98.575 133.142,97.968 133.980 C 97.361 134.819,96.574 136.360,96.219 137.406 C 95.864 138.451,95.023 140.588,94.350 142.153 C 92.988 145.323,92.881 149.337,94.122 150.719 C 94.458 151.094,95.037 152.163,95.408 153.095 C 96.013 154.615,96.731 155.415,99.517 157.673 C 101.679 159.427,102.384 159.629,108.445 160.240 C 114.093 160.808,116.649 161.237,124.600 162.952 C 126.140 163.284,130.550 163.832,134.400 164.170 C 138.385 164.519,143.127 165.206,145.410 165.764 C 147.615 166.303,151.372 167.016,153.759 167.349 C 157.165 167.823,158.303 168.146,159.050 168.847 L 160.000 169.739 159.976 228.170 C 159.952 286.970,159.881 290.231,158.606 290.988 C 158.224 291.215,157.200 291.940,156.329 292.600 C 154.754 293.794,150.771 296.714,147.596 299.000 C 146.680 299.660,144.954 301.055,143.761 302.100 C 142.568 303.145,141.419 304.000,141.209 304.000 C 140.999 304.000,139.938 304.765,138.852 305.700 C 137.765 306.635,136.094 307.893,135.138 308.496 C 133.239 309.693,130.896 311.454,127.800 314.011 C 126.700 314.919,125.234 316.053,124.542 316.531 C 122.513 317.933,119.587 320.101,117.832 321.505 C 116.934 322.223,115.667 323.123,115.016 323.505 C 114.364 323.887,113.104 324.893,112.216 325.740 C 111.327 326.587,109.970 327.605,109.200 328.001 C 108.430 328.398,107.361 329.193,106.824 329.767 C 106.288 330.342,105.028 331.289,104.024 331.872 C 103.021 332.454,101.240 333.801,100.068 334.865 C 98.895 335.929,97.759 336.800,97.542 336.800 C 96.555 336.800,93.398 344.544,93.466 346.801 C 93.603 351.422,96.188 355.345,101.351 358.770 C 103.761 360.369,110.495 360.156,112.873 358.406 C 113.463 357.971,115.259 356.977,116.863 356.196 C 118.468 355.415,120.235 354.356,120.790 353.842 C 121.346 353.329,122.880 352.424,124.200 351.832 C 125.520 351.239,127.050 350.327,127.600 349.803 C 128.150 349.280,129.500 348.468,130.600 348.000 C 131.700 347.532,133.050 346.720,133.600 346.196 C 134.150 345.672,135.680 344.769,137.000 344.190 C 138.320 343.610,139.865 342.696,140.432 342.158 C 141.000 341.620,142.710 340.583,144.232 339.853 C 145.755 339.123,147.270 338.198,147.600 337.798 C 147.930 337.398,149.190 336.635,150.400 336.103 C 151.610 335.571,153.050 334.710,153.600 334.190 C 154.150 333.669,155.680 332.770,157.000 332.190 C 158.320 331.611,159.940 330.635,160.600 330.020 C 161.260 329.406,162.693 328.571,163.785 328.165 C 164.877 327.759,166.353 326.914,167.067 326.288 C 167.780 325.661,169.443 324.626,170.761 323.987 C 172.080 323.349,173.992 322.190,175.010 321.413 C 176.028 320.636,177.107 320.000,177.406 320.000 C 178.207 320.000,183.945 314.815,184.228 313.837 C 184.361 313.377,185.107 312.052,185.887 310.894 C 186.672 309.729,187.649 307.506,188.076 305.918 C 188.499 304.339,189.448 302.046,190.184 300.824 C 190.921 299.601,191.742 297.610,192.009 296.400 C 192.276 295.190,193.181 292.940,194.019 291.400 C 194.857 289.860,195.849 287.381,196.222 285.892 C 196.596 284.403,197.399 282.423,198.007 281.492 C 198.615 280.561,199.579 278.270,200.149 276.400 C 201.233 272.839,203.375 269.109,205.045 267.870 C 206.178 267.030,208.277 267.967,211.301 270.662 C 212.127 271.398,212.980 272.000,213.197 272.000 C 213.414 272.000,214.585 272.900,215.800 274.000 C 217.015 275.100,218.176 276.000,218.380 276.000 C 218.584 276.000,219.590 276.726,220.616 277.613 C 221.641 278.501,223.317 279.653,224.340 280.174 C 225.363 280.695,226.650 281.606,227.200 282.199 C 227.750 282.793,228.830 283.604,229.600 284.002 C 230.370 284.401,231.540 285.299,232.200 285.999 C 232.860 286.699,233.911 287.538,234.536 287.864 C 240.675 291.070,243.158 294.779,243.998 301.996 C 244.524 306.516,244.916 308.373,246.216 312.512 C 246.754 314.223,247.476 317.913,247.820 320.712 C 248.542 326.592,248.880 328.261,250.198 332.454 C 250.726 334.134,251.355 337.104,251.595 339.054 C 252.564 346.913,252.864 348.168,254.667 351.884 C 257.664 358.058,260.433 359.899,266.800 359.951 C 271.609 359.991,273.037 359.382,276.164 355.958 C 280.766 350.920,281.275 345.189,278.027 335.004 C 277.343 332.860,276.537 328.808,276.038 325.000 C 275.528 321.112,274.742 317.187,274.037 315.000 C 273.324 312.789,272.555 308.925,272.044 304.987 C 271.550 301.179,270.797 297.361,270.191 295.587 C 269.630 293.944,268.905 290.800,268.579 288.600 C 268.253 286.400,267.790 283.253,267.549 281.607 C 267.014 277.947,264.028 271.406,261.625 268.629 C 260.731 267.596,260.000 266.610,260.000 266.438 C 260.000 266.266,259.100 265.096,258.000 263.839 C 256.900 262.582,256.000 261.390,256.000 261.190 C 256.000 260.990,255.235 259.949,254.300 258.877 C 253.365 257.805,252.105 256.134,251.501 255.164 C 250.421 253.430,249.042 251.567,246.200 248.000 C 243.340 244.409,241.967 242.555,240.429 240.200 C 239.567 238.880,238.417 237.350,237.874 236.800 C 237.330 236.250,236.388 234.990,235.779 234.000 C 235.171 233.010,234.339 231.963,233.931 231.674 C 233.523 231.384,232.845 230.484,232.424 229.674 C 232.003 228.863,231.101 227.599,230.419 226.864 C 229.738 226.130,228.779 224.780,228.290 223.864 L 227.400 222.200 227.180 189.800 C 226.988 161.427,226.880 157.151,226.313 155.400 C 224.001 148.261,223.157 146.250,221.887 144.844 C 221.139 144.015,220.204 142.791,219.809 142.123 C 219.414 141.455,218.545 140.586,217.877 140.191 C 217.209 139.796,215.985 138.861,215.156 138.113 C 214.169 137.221,212.437 136.339,210.125 135.552 C 208.186 134.892,205.790 134.052,204.800 133.687 C 203.190 133.093,199.275 133.000,167.707 132.811 L 132.415 132.600 131.131 131.316 C 129.945 130.130,129.895 129.977,130.477 129.316 C 130.823 128.922,131.516 127.462,132.017 126.072 C 132.518 124.681,133.407 122.881,133.993 122.072 C 134.579 121.262,135.369 119.790,135.748 118.800 C 136.128 117.810,136.756 116.580,137.145 116.067 L 137.853 115.135 140.226 115.802 C 141.532 116.168,143.500 117.073,144.600 117.811 C 153.181 123.574,168.991 117.519,171.781 107.400 C 173.068 102.734,173.628 101.521,174.343 101.845 C 175.184 102.225,180.649 104.003,185.859 105.593 C 191.512 107.316,195.178 107.332,200.610 105.654 C 202.804 104.976,205.338 104.237,206.240 104.012 C 207.141 103.786,208.491 103.160,209.240 102.620 C 209.988 102.079,211.410 101.142,212.400 100.537 C 214.715 99.123,219.123 94.715,220.537 92.400 C 221.142 91.410,222.079 89.988,222.620 89.240 C 223.160 88.491,223.789 87.141,224.018 86.240 C 224.246 85.338,224.966 82.818,225.617 80.640 C 227.086 75.724,227.201 71.557,225.985 67.391 C 225.536 65.856,224.752 63.107,224.243 61.282 C 223.672 59.240,222.926 57.548,222.303 56.882 C 221.747 56.287,220.982 55.187,220.603 54.438 C 219.189 51.638,211.811 45.107,208.745 43.942 C 207.639 43.522,205.705 42.659,204.448 42.024 C 200.624 40.094,193.417 39.453,186.646 40.441 M249.000 133.421 C 247.505 134.567,247.877 138.347,249.884 142.400 C 251.485 145.633,251.598 146.104,252.193 151.995 C 252.876 158.750,253.005 159.054,255.444 159.620 C 256.300 159.818,271.592 159.985,289.427 159.990 C 323.784 160.001,324.954 159.942,326.452 158.138 C 326.753 157.775,327.928 156.792,329.062 155.954 C 331.732 153.982,332.572 151.754,332.588 146.600 C 332.609 140.336,330.760 137.562,324.544 134.533 L 321.400 133.000 285.600 132.904 C 253.957 132.820,249.707 132.880,249.000 133.421 " stroke="none" fill="#050508" fill-rule="evenodd"></path><path id="path1" d="M0.000 200.000 L 0.000 400.000 200.000 400.000 L 400.000 400.000 400.000 200.000 L 400.000 0.000 200.000 0.000 L 0.000 0.000 0.000 200.000 M199.808 40.435 C 201.103 40.675,203.191 41.390,204.448 42.024 C 205.705 42.659,207.639 43.522,208.745 43.942 C 211.811 45.107,219.189 51.638,220.603 54.438 C 220.982 55.187,221.747 56.287,222.303 56.882 C 222.926 57.548,223.672 59.240,224.243 61.282 C 224.752 63.107,225.536 65.856,225.985 67.391 C 227.201 71.557,227.086 75.724,225.617 80.640 C 224.966 82.818,224.246 85.338,224.018 86.240 C 223.789 87.141,223.160 88.491,222.620 89.240 C 222.079 89.988,221.142 91.410,220.537 92.400 C 219.123 94.715,214.715 99.123,212.400 100.537 C 211.410 101.142,209.988 102.079,209.240 102.620 C 208.491 103.160,207.141 103.786,206.240 104.012 C 205.338 104.237,202.804 104.976,200.610 105.654 C 195.178 107.332,191.512 107.316,185.859 105.593 C 180.649 104.003,175.184 102.225,174.343 101.845 C 173.628 101.521,173.068 102.734,171.781 107.400 C 170.769 111.069,167.307 114.915,162.645 117.548 C 156.733 120.886,149.339 120.994,144.600 117.811 C 143.500 117.073,141.532 116.168,140.226 115.802 L 137.853 115.135 137.145 116.067 C 136.756 116.580,136.128 117.810,135.748 118.800 C 135.369 119.790,134.579 121.262,133.993 122.072 C 133.407 122.881,132.518 124.681,132.017 126.072 C 131.516 127.462,130.823 128.922,130.477 129.316 C 129.895 129.977,129.945 130.130,131.131 131.316 L 132.415 132.600 167.707 132.811 C 199.275 133.000,203.190 133.093,204.800 133.687 C 205.790 134.052,208.186 134.892,210.125 135.552 C 212.437 136.339,214.169 137.221,215.156 138.113 C 215.985 138.861,217.209 139.796,217.877 140.191 C 218.545 140.586,219.414 141.455,219.809 142.123 C 220.204 142.791,221.139 144.015,221.887 144.844 C 223.157 146.250,224.001 148.261,226.313 155.400 C 226.880 157.151,226.988 161.427,227.180 189.800 L 227.400 222.200 228.290 223.864 C 228.779 224.780,229.738 226.130,230.419 226.864 C 231.101 227.599,232.003 228.863,232.424 229.674 C 232.845 230.484,233.523 231.384,233.931 231.674 C 234.339 231.963,235.171 233.010,235.779 234.000 C 236.388 234.990,237.330 236.250,237.874 236.800 C 238.417 237.350,239.567 238.880,240.429 240.200 C 241.967 242.555,243.340 244.409,246.200 248.000 C 249.042 251.567,250.421 253.430,251.501 255.164 C 252.105 256.134,253.365 257.805,254.300 258.877 C 255.235 259.949,256.000 260.990,256.000 261.190 C 256.000 261.390,256.900 262.582,258.000 263.839 C 259.100 265.096,260.000 266.266,260.000 266.438 C 260.000 266.610,260.731 267.596,261.625 268.629 C 264.028 271.406,267.014 277.947,267.549 281.607 C 267.790 283.253,268.253 286.400,268.579 288.600 C 268.905 290.800,269.630 293.944,270.191 295.587 C 270.797 297.361,271.550 301.179,272.044 304.987 C 272.555 308.925,273.324 312.789,274.037 315.000 C 274.742 317.187,275.528 321.112,276.038 325.000 C 276.537 328.808,277.343 332.860,278.027 335.004 C 281.275 345.189,280.766 350.920,276.164 355.958 C 273.037 359.382,271.609 359.991,266.800 359.951 C 260.433 359.899,257.664 358.058,254.667 351.884 C 252.864 348.168,252.564 346.913,251.595 339.054 C 251.355 337.104,250.726 334.134,250.198 332.454 C 248.880 328.261,248.542 326.592,247.820 320.712 C 247.476 317.913,246.754 314.223,246.216 312.512 C 244.916 308.373,244.524 306.516,243.998 301.996 C 243.158 294.779,240.675 291.070,234.536 287.864 C 233.911 287.538,232.860 286.699,232.200 285.999 C 231.540 285.299,230.370 284.401,229.600 284.002 C 228.830 283.604,227.750 282.793,227.200 282.199 C 226.650 281.606,225.363 280.695,224.340 280.174 C 223.317 279.653,221.641 278.501,220.616 277.613 C 219.590 276.726,218.584 276.000,218.380 276.000 C 218.176 276.000,217.015 275.100,215.800 274.000 C 214.585 272.900,213.414 272.000,213.197 272.000 C 212.980 272.000,212.127 271.398,211.301 270.662 C 208.277 267.967,206.178 267.030,205.045 267.870 C 203.375 269.109,201.233 272.839,200.149 276.400 C 199.579 278.270,198.615 280.561,198.007 281.492 C 197.399 282.423,196.596 284.403,196.222 285.892 C 195.849 287.381,194.857 289.860,194.019 291.400 C 193.181 292.940,192.276 295.190,192.009 296.400 C 191.742 297.610,190.921 299.601,190.184 300.824 C 189.448 302.046,188.499 304.339,188.076 305.918 C 187.649 307.506,186.672 309.729,185.887 310.894 C 185.107 312.052,184.361 313.377,184.228 313.837 C 183.945 314.815,178.207 320.000,177.406 320.000 C 177.107 320.000,176.028 320.636,175.010 321.413 C 173.992 322.190,172.080 323.349,170.761 323.987 C 169.443 324.626,167.780 325.661,167.067 326.288 C 166.353 326.914,164.877 327.759,163.785 328.165 C 162.693 328.571,161.260 329.406,160.600 330.020 C 159.940 330.635,158.320 331.611,157.000 332.190 C 155.680 332.770,154.150 333.669,153.600 334.190 C 153.050 334.710,151.610 335.571,150.400 336.103 C 149.190 336.635,147.930 337.398,147.600 337.798 C 147.270 338.198,145.755 339.123,144.232 339.853 C 142.710 340.583,141.000 341.620,140.432 342.158 C 139.865 342.696,138.320 343.610,137.000 344.190 C 135.680 344.769,134.150 345.672,133.600 346.196 C 133.050 346.720,131.700 347.532,130.600 348.000 C 129.500 348.468,128.150 349.280,127.600 349.803 C 127.050 350.327,125.520 351.239,124.200 351.832 C 122.880 352.424,121.346 353.329,120.790 353.842 C 120.235 354.356,118.468 355.415,116.863 356.196 C 115.259 356.977,113.463 357.971,112.873 358.406 C 110.495 360.156,103.761 360.369,101.351 358.770 C 96.188 355.345,93.603 351.422,93.466 346.801 C 93.398 344.544,96.555 336.800,97.542 336.800 C 97.759 336.800,98.895 335.929,100.068 334.865 C 101.240 333.801,103.021 332.454,104.024 331.872 C 105.028 331.289,106.288 330.342,106.824 329.767 C 107.361 329.193,108.430 328.398,109.200 328.001 C 109.970 327.605,111.327 326.587,112.216 325.740 C 113.104 324.893,114.364 323.887,115.016 323.505 C 115.667 323.123,116.934 322.223,117.832 321.505 C 119.587 320.101,122.513 317.933,124.542 316.531 C 125.234 316.053,126.700 314.919,127.800 314.011 C 130.896 311.454,133.239 309.693,135.138 308.496 C 136.094 307.893,137.765 306.635,138.852 305.700 C 139.938 304.765,140.999 304.000,141.209 304.000 C 141.419 304.000,142.568 303.145,143.761 302.100 C 144.954 301.055,146.680 299.660,147.596 299.000 C 150.771 296.714,154.754 293.794,156.329 292.600 C 157.200 291.940,158.224 291.215,158.606 290.988 C 159.881 290.231,159.952 286.970,159.976 228.170 L 160.000 169.739 159.050 168.847 C 158.303 168.146,157.165 167.823,153.759 167.349 C 151.372 167.016,147.615 166.303,145.410 165.764 C 143.127 165.206,138.385 164.519,134.400 164.170 C 130.550 163.832,126.140 163.284,124.600 162.952 C 116.649 161.237,114.093 160.808,108.445 160.240 C 102.384 159.629,101.679 159.427,99.517 157.673 C 96.731 155.415,96.013 154.615,95.408 153.095 C 95.037 152.163,94.458 151.094,94.122 150.719 C 92.881 149.337,92.988 145.323,94.350 142.153 C 95.023 140.588,95.864 138.451,96.219 137.406 C 96.574 136.360,97.361 134.819,97.968 133.980 C 98.575 133.142,99.482 131.319,99.982 129.928 C 100.482 128.538,101.339 126.804,101.885 126.075 C 102.432 125.346,103.306 123.659,103.829 122.327 C 104.351 120.994,105.311 119.071,105.961 118.052 C 106.612 117.033,107.545 115.125,108.034 113.811 C 108.524 112.497,109.408 110.754,109.998 109.939 C 110.589 109.123,111.482 107.334,111.982 105.961 C 112.482 104.589,113.401 102.764,114.023 101.904 C 114.646 101.045,115.452 99.410,115.816 98.271 C 116.179 97.132,117.077 95.300,117.812 94.200 C 118.546 93.100,119.519 91.198,119.974 89.974 C 121.054 87.071,125.585 82.071,128.287 80.801 C 130.870 79.587,137.123 79.774,139.255 81.129 C 142.132 82.957,142.221 82.974,144.018 82.038 C 146.664 80.658,150.525 79.939,154.685 80.050 C 159.925 80.189,160.116 79.977,160.029 74.106 C 159.948 68.638,160.554 64.722,161.839 62.421 C 162.385 61.442,163.239 59.635,163.736 58.404 C 165.924 52.988,173.773 45.171,178.600 43.602 C 179.480 43.316,181.121 42.565,182.246 41.933 C 185.404 40.160,194.242 39.406,199.808 40.435 M324.544 134.533 C 330.760 137.562,332.609 140.336,332.588 146.600 C 332.572 151.754,331.732 153.982,329.062 155.954 C 327.928 156.792,326.753 157.775,326.452 158.138 C 324.954 159.942,323.784 160.001,289.427 159.990 C 271.592 159.985,256.300 159.818,255.444 159.620 C 253.005 159.054,252.876 158.750,252.193 151.995 C 251.598 146.104,251.485 145.633,249.884 142.400 C 248.451 139.508,248.200 138.629,248.200 136.517 C 248.200 132.446,244.594 132.794,285.600 132.904 L 321.400 133.000 324.544 134.533 " stroke="none" fill="#5c7cfc" fill-rule="evenodd"></path></g></svg>