<svg id="svg" version="1.1" xmlns="http://www.w3.org/2000/svg" xmlns:xlink="http://www.w3.org/1999/xlink" width="400" height="400" viewBox="0, 0, 400,400"><g id="svgg"><path id="path0" d="M313.232 57.275 C 311.424 57.501,309.626 58.012,308.632 58.583 C 307.734 59.099,305.674 59.815,304.054 60.175 C 301.064 60.840,298.282 62.021,297.776 62.839 C 297.623 63.087,296.486 63.736,295.249 64.282 C 294.012 64.828,292.370 65.886,291.600 66.632 C 283.231 74.746,281.337 76.868,280.228 79.374 C 279.712 80.542,279.087 81.623,278.839 81.776 C 278.040 82.270,276.919 84.916,276.059 88.337 C 275.597 90.172,274.866 92.246,274.434 92.945 C 272.209 96.546,272.356 111.531,274.655 115.456 C 275.188 116.367,275.896 118.412,276.227 120.001 C 276.834 122.914,278.008 125.711,278.839 126.224 C 279.087 126.377,279.736 127.514,280.282 128.751 C 281.289 131.032,281.592 131.393,287.100 136.896 C 292.484 142.274,293.093 142.771,295.317 143.603 C 296.513 144.051,297.830 144.791,298.245 145.249 C 299.360 146.482,300.767 147.099,303.993 147.772 C 305.585 148.104,307.663 148.830,308.611 149.385 C 312.592 151.718,327.408 151.718,331.389 149.385 C 332.337 148.830,334.415 148.104,336.007 147.772 C 339.195 147.107,340.886 146.375,342.400 145.003 C 342.950 144.504,344.086 143.877,344.925 143.609 C 346.514 143.101,347.725 142.083,352.904 136.904 C 358.076 131.732,359.100 130.514,359.617 128.925 C 359.890 128.086,360.602 126.770,361.199 126.000 C 362.790 123.948,363.101 123.224,363.770 120.016 C 364.103 118.419,364.830 116.337,365.385 115.389 C 367.718 111.408,367.718 96.592,365.385 92.611 C 364.830 91.663,364.104 89.585,363.772 87.993 C 363.107 84.805,362.375 83.114,361.003 81.600 C 360.504 81.050,359.870 79.893,359.594 79.028 C 359.020 77.236,357.251 75.277,348.392 66.625 C 347.617 65.869,346.177 64.902,345.192 64.477 C 344.206 64.052,343.044 63.305,342.608 62.819 C 341.572 61.661,339.972 61.018,336.165 60.231 C 334.450 59.876,332.316 59.158,331.423 58.635 C 328.639 57.005,320.346 56.384,313.232 57.275 M212.200 107.222 C 209.560 107.624,204.612 108.244,201.204 108.599 C 197.227 109.013,194.003 109.585,192.204 110.195 C 187.944 111.641,186.577 111.928,181.800 112.385 C 175.510 112.985,172.089 113.590,170.060 114.460 C 168.074 115.312,163.635 116.093,156.800 116.796 C 153.917 117.092,150.931 117.693,148.800 118.406 C 144.661 119.791,144.382 119.845,137.469 120.597 C 133.093 121.073,131.374 121.446,129.241 122.382 C 127.757 123.033,124.756 123.949,122.572 124.417 C 119.675 125.037,118.059 125.629,116.600 126.603 C 115.500 127.337,113.520 128.253,112.200 128.638 C 110.720 129.069,109.417 129.758,108.800 130.435 C 108.250 131.038,106.810 132.022,105.600 132.622 C 102.394 134.210,94.655 141.199,92.827 144.157 C 92.304 145.002,91.202 146.473,90.378 147.426 C 89.553 148.379,88.581 150.054,88.217 151.148 C 87.854 152.243,87.283 153.365,86.949 153.642 C 85.866 154.541,84.901 156.929,84.273 160.264 C 83.934 162.059,83.178 164.542,82.591 165.782 C 80.270 170.689,80.254 183.973,82.564 188.979 C 83.168 190.288,84.035 192.959,84.491 194.915 C 85.133 197.667,85.601 198.769,86.560 199.793 C 87.242 200.520,88.231 202.210,88.757 203.548 C 89.287 204.897,90.130 206.256,90.648 206.595 C 91.163 206.932,91.875 207.791,92.231 208.504 C 92.884 209.809,94.154 211.183,100.126 217.042 C 101.047 217.945,102.371 218.977,103.068 219.336 C 103.766 219.694,104.725 220.533,105.200 221.200 C 105.675 221.867,106.634 222.703,107.332 223.060 C 108.029 223.416,109.347 224.390,110.260 225.225 C 111.173 226.060,112.613 227.099,113.460 227.535 C 114.307 227.970,115.539 228.894,116.199 229.588 C 116.858 230.282,118.148 231.182,119.065 231.587 C 119.981 231.993,120.933 232.702,121.180 233.163 C 121.427 233.624,122.516 234.451,123.601 235.000 C 124.686 235.550,126.485 236.810,127.600 237.800 C 128.715 238.790,129.808 239.600,130.030 239.600 C 130.253 239.600,131.282 240.378,132.317 241.330 C 133.353 242.281,134.791 243.295,135.514 243.584 C 136.236 243.872,137.136 244.494,137.514 244.966 C 137.891 245.438,139.190 246.426,140.400 247.163 C 141.610 247.899,143.361 249.199,144.291 250.051 C 145.221 250.903,146.238 251.600,146.550 251.600 C 146.862 251.600,147.680 252.241,148.368 253.024 C 149.055 253.807,150.228 254.703,150.974 255.015 C 151.720 255.327,153.172 256.310,154.201 257.201 C 155.231 258.092,156.731 259.160,157.536 259.575 C 158.341 259.990,159.620 260.976,160.378 261.765 C 161.137 262.554,161.991 263.200,162.277 263.200 C 162.564 263.200,163.533 263.864,164.432 264.676 C 165.330 265.488,167.166 266.793,168.511 267.576 C 171.932 269.567,172.615 270.858,172.546 275.200 C 172.477 279.581,171.800 283.241,170.548 286.000 C 169.989 287.230,169.287 289.963,168.954 292.200 C 167.842 299.674,167.173 302.884,166.424 304.353 C 165.620 305.928,165.151 308.170,164.233 314.823 C 163.912 317.145,163.384 319.755,163.059 320.623 C 162.735 321.490,162.178 322.983,161.823 323.939 C 160.245 328.189,160.668 337.809,162.560 340.667 C 163.118 341.511,163.937 343.253,164.379 344.539 C 165.135 346.736,166.279 348.252,169.352 351.123 C 169.986 351.715,171.077 352.783,171.776 353.495 C 172.478 354.210,174.032 355.129,175.242 355.546 C 176.448 355.961,178.507 356.908,179.818 357.650 L 182.200 359.000 188.000 359.000 L 193.800 359.000 196.066 357.690 C 197.312 356.970,199.371 356.023,200.641 355.586 C 201.958 355.133,203.499 354.234,204.224 353.495 C 204.923 352.783,206.014 351.715,206.648 351.123 C 209.721 348.252,210.865 346.736,211.621 344.539 C 212.063 343.253,212.871 341.527,213.416 340.704 C 214.544 339.000,214.958 337.278,215.784 330.870 C 216.162 327.945,216.716 325.581,217.351 324.195 C 218.482 321.724,218.987 319.408,219.618 313.800 C 220.033 310.116,220.357 308.877,222.147 304.127 C 222.494 303.207,223.136 299.726,223.575 296.393 C 224.137 292.122,224.662 289.699,225.353 288.191 C 226.477 285.736,226.984 283.419,227.615 277.870 C 228.034 274.180,228.515 272.366,230.234 268.000 C 230.796 266.572,230.947 264.961,230.964 260.200 L 230.985 254.200 229.528 251.600 C 228.726 250.170,227.842 248.222,227.563 247.272 C 227.111 245.730,226.150 244.459,222.669 240.800 C 222.146 240.250,220.784 238.990,219.642 238.000 C 218.501 237.010,216.809 235.456,215.883 234.546 C 214.957 233.636,213.654 232.616,212.986 232.280 C 212.318 231.943,211.514 231.187,211.199 230.598 C 210.884 230.009,209.962 229.189,209.151 228.775 C 208.339 228.361,207.301 227.546,206.843 226.963 C 206.385 226.381,205.304 225.431,204.441 224.852 C 202.644 223.647,198.461 220.196,196.400 218.219 C 195.630 217.480,194.460 216.544,193.800 216.138 C 192.644 215.427,191.512 214.438,187.916 211.000 C 186.995 210.121,185.485 208.920,184.559 208.333 C 183.632 207.745,182.762 206.910,182.624 206.475 C 182.486 206.041,181.857 205.472,181.226 205.211 C 180.595 204.950,179.656 204.279,179.140 203.721 C 178.623 203.162,176.895 201.735,175.300 200.550 C 173.705 199.364,172.400 198.240,172.400 198.052 C 172.400 197.399,174.385 195.729,175.889 195.116 C 182.343 192.489,183.584 192.184,190.961 191.418 C 197.044 190.785,198.465 190.508,202.489 189.163 C 203.748 188.743,207.594 188.037,211.035 187.595 C 217.891 186.715,218.848 186.545,220.545 185.900 C 223.670 184.714,227.457 187.492,228.783 191.942 C 229.263 193.556,230.000 195.037,230.606 195.606 C 231.249 196.210,231.990 197.764,232.619 199.825 C 233.167 201.621,233.946 203.390,234.352 203.756 C 235.199 204.523,236.184 206.664,236.786 209.046 C 237.015 209.952,237.717 211.341,238.347 212.133 C 239.583 213.689,240.127 214.874,240.782 217.446 C 241.013 218.352,241.742 219.772,242.402 220.603 C 243.063 221.434,243.970 223.300,244.418 224.751 C 244.865 226.201,245.839 228.291,246.582 229.394 C 247.324 230.497,248.216 232.413,248.563 233.650 C 248.910 234.888,249.795 236.778,250.530 237.850 C 251.266 238.923,252.255 241.081,252.729 242.647 C 253.203 244.213,253.875 245.730,254.222 246.018 C 255.100 246.747,255.901 248.396,256.814 251.352 C 257.243 252.740,258.038 254.356,258.581 254.941 C 259.123 255.527,260.035 257.489,260.607 259.303 C 261.195 261.166,262.084 263.057,262.652 263.652 C 263.217 264.243,264.078 266.068,264.618 267.819 C 265.155 269.557,266.020 271.394,266.574 271.973 C 267.590 273.033,268.800 275.902,268.800 277.249 C 268.800 277.661,269.407 278.673,270.149 279.499 C 270.891 280.324,272.042 282.080,272.708 283.400 C 273.395 284.763,274.497 286.214,275.259 286.759 C 275.996 287.286,277.040 288.259,277.577 288.921 C 278.129 289.600,279.871 290.726,281.577 291.507 C 283.240 292.267,284.960 293.210,285.400 293.601 C 288.015 295.926,301.096 295.803,304.608 293.420 C 305.407 292.878,306.994 292.085,308.136 291.658 C 310.198 290.887,315.600 286.269,315.600 285.278 C 315.600 285.032,316.293 284.148,317.140 283.315 C 319.705 280.792,322.758 268.445,321.581 265.351 C 321.351 264.746,320.561 261.945,319.826 259.129 C 318.795 255.179,318.218 253.698,317.303 252.656 C 316.559 251.809,315.844 250.280,315.385 248.553 C 314.920 246.810,314.188 245.250,313.387 244.300 C 312.611 243.379,311.795 241.670,311.272 239.872 C 310.805 238.261,310.082 236.636,309.666 236.260 C 308.803 235.479,307.820 233.352,307.214 230.954 C 306.985 230.048,306.258 228.628,305.598 227.797 C 304.937 226.966,304.030 225.100,303.582 223.649 C 303.135 222.199,302.157 220.109,301.410 219.006 C 300.662 217.903,299.841 216.190,299.584 215.200 C 299.027 213.055,298.180 211.300,297.165 210.187 C 296.757 209.739,295.956 207.939,295.385 206.187 C 294.813 204.434,294.021 202.640,293.623 202.200 C 292.610 201.079,292.095 199.992,291.191 197.066 C 290.759 195.668,289.973 194.056,289.444 193.485 C 288.914 192.914,287.987 190.951,287.382 189.123 C 286.778 187.295,285.806 185.251,285.223 184.579 C 284.640 183.908,283.760 181.997,283.266 180.334 C 282.714 178.475,281.984 176.949,281.372 176.374 C 280.754 175.793,280.000 174.204,279.384 172.185 C 278.775 170.187,278.013 168.576,277.409 168.008 C 276.515 167.168,275.639 165.078,275.045 162.366 C 274.920 161.798,274.298 160.679,273.663 159.879 C 272.417 158.311,271.874 157.130,271.218 154.554 C 270.987 153.648,270.258 152.228,269.598 151.397 C 268.937 150.566,268.030 148.700,267.582 147.249 C 267.135 145.799,266.161 143.709,265.418 142.606 C 264.676 141.503,263.787 139.595,263.442 138.367 C 263.098 137.138,262.184 135.338,261.412 134.367 C 260.639 133.395,259.719 131.738,259.366 130.685 C 259.014 129.632,258.326 128.508,257.838 128.188 C 257.351 127.869,256.534 126.864,256.024 125.956 C 254.653 123.518,249.633 118.164,247.159 116.502 C 245.972 115.704,244.518 114.572,243.929 113.986 C 243.341 113.400,242.028 112.688,241.013 112.404 C 239.998 112.120,238.533 111.382,237.757 110.766 C 235.891 109.283,235.077 109.057,226.450 107.622 C 218.086 106.231,218.602 106.246,212.200 107.222 M81.278 224.900 C 80.963 225.519,80.784 230.804,80.703 241.800 C 80.577 258.949,80.528 259.368,78.522 260.442 C 77.977 260.733,77.258 261.518,76.923 262.186 C 76.588 262.854,75.610 264.120,74.750 265.000 C 71.600 268.224,69.811 270.232,68.868 271.600 C 68.337 272.370,67.645 273.149,67.331 273.331 C 67.017 273.513,66.219 274.410,65.557 275.323 C 64.232 277.152,61.008 280.877,58.744 283.194 C 57.943 284.014,56.812 285.403,56.231 286.282 C 55.650 287.160,54.753 288.104,54.238 288.380 C 53.723 288.655,52.906 289.584,52.423 290.444 C 51.940 291.305,51.052 292.263,50.450 292.574 C 49.848 292.885,49.128 293.649,48.850 294.270 C 48.572 294.892,47.636 296.120,46.769 297.000 C 43.372 300.451,41.200 302.859,41.200 303.177 C 41.200 303.360,39.206 305.726,36.769 308.435 C 34.332 311.143,32.091 313.837,31.789 314.421 C 31.488 315.004,30.799 315.771,30.258 316.125 C 29.622 316.542,28.979 317.660,28.434 319.297 C 27.972 320.687,27.134 322.501,26.572 323.327 C 24.304 326.665,24.210 336.372,26.409 340.216 C 27.075 341.379,27.969 343.347,28.396 344.588 C 29.105 346.651,29.749 347.504,33.300 351.092 C 36.272 354.095,37.356 354.897,39.395 355.598 C 40.646 356.029,42.688 356.970,43.934 357.690 L 46.200 359.000 51.822 359.000 L 57.444 359.000 60.622 357.348 C 62.370 356.440,64.358 355.576,65.040 355.430 C 66.728 355.066,73.637 348.750,75.834 345.561 C 76.380 344.769,77.247 343.896,77.762 343.620 C 78.277 343.345,79.094 342.416,79.577 341.556 C 80.060 340.695,80.971 339.725,81.600 339.400 C 82.229 339.075,82.871 338.407,83.027 337.915 C 83.183 337.423,84.141 336.155,85.155 335.097 C 86.170 334.040,87.754 332.325,88.676 331.287 C 89.598 330.249,91.232 328.410,92.308 327.200 C 93.384 325.990,94.536 324.595,94.869 324.101 C 95.583 323.040,99.187 318.924,101.256 316.806 C 102.057 315.986,103.202 314.575,103.801 313.671 C 104.400 312.766,105.229 311.918,105.643 311.786 C 106.058 311.655,106.847 310.780,107.396 309.842 C 107.946 308.905,108.847 307.896,109.400 307.600 C 109.953 307.304,110.867 306.273,111.432 305.309 C 111.997 304.345,112.910 303.351,113.460 303.100 C 114.010 302.849,114.735 302.094,115.071 301.422 C 115.407 300.750,116.297 299.570,117.048 298.800 C 118.831 296.974,121.954 293.369,123.286 291.600 C 123.865 290.830,125.090 289.394,126.006 288.409 C 126.923 287.425,127.917 286.146,128.216 285.569 C 128.515 284.991,129.202 284.229,129.742 283.875 C 130.346 283.479,130.989 282.413,131.408 281.115 C 131.783 279.952,132.710 277.872,133.468 276.494 C 134.711 274.233,134.868 273.586,135.080 269.856 L 135.314 265.723 134.189 264.962 C 133.570 264.543,132.438 263.574,131.674 262.810 C 130.909 262.045,129.610 261.118,128.787 260.750 C 127.964 260.381,126.595 259.455,125.745 258.693 C 124.895 257.930,123.480 256.940,122.600 256.494 C 121.720 256.048,120.490 255.108,119.866 254.407 C 119.242 253.705,118.139 252.883,117.414 252.580 C 116.689 252.277,115.649 251.498,115.103 250.849 C 114.557 250.200,113.230 249.221,112.155 248.674 C 111.080 248.127,109.750 247.194,109.200 246.600 C 108.650 246.006,107.348 245.087,106.307 244.557 C 105.266 244.027,104.104 243.121,103.725 242.542 C 103.347 241.964,102.415 241.231,101.656 240.914 C 100.896 240.597,99.576 239.631,98.722 238.768 C 97.868 237.906,96.988 237.200,96.767 237.200 C 96.546 237.200,95.518 236.422,94.483 235.472 C 93.447 234.521,91.970 233.326,91.200 232.815 C 90.430 232.305,88.073 230.112,85.963 227.943 C 81.662 223.523,81.899 223.677,81.278 224.900 M327.413 321.252 C 326.541 321.456,325.461 321.958,325.013 322.367 C 324.566 322.775,323.390 323.509,322.400 323.997 C 319.957 325.200,317.343 327.783,316.122 330.200 C 315.566 331.300,314.783 332.560,314.380 333.000 C 312.306 335.269,312.297 344.696,314.367 347.000 C 314.763 347.440,315.594 348.752,316.215 349.915 C 317.526 352.372,319.984 354.773,322.460 356.017 C 323.417 356.497,324.560 357.219,325.000 357.621 C 327.410 359.822,336.783 359.685,339.200 357.414 C 339.750 356.897,340.864 356.201,341.676 355.868 C 343.781 355.002,346.613 352.248,347.639 350.067 C 348.123 349.040,348.961 347.720,349.502 347.134 C 351.576 344.885,351.703 335.273,349.689 333.072 C 349.250 332.592,348.497 331.417,348.017 330.460 C 346.773 327.984,344.372 325.526,341.915 324.215 C 340.752 323.594,339.440 322.763,339.000 322.367 C 337.419 320.947,331.251 320.353,327.413 321.252 " stroke="none" fill="#050608" fill-rule="evenodd"></path><path id="path1" d="M0.000 200.000 L 0.000 400.000 200.000 400.000 L 400.000 400.000 400.000 200.000 L 400.000 0.000 200.000 0.000 L 0.000 0.000 0.000 200.000 M326.200 57.243 C 328.654 57.544,330.317 57.987,331.423 58.635 C 332.316 59.158,334.450 59.876,336.165 60.231 C 339.972 61.018,341.572 61.661,342.608 62.819 C 343.044 63.305,344.206 64.052,345.192 64.477 C 346.177 64.902,347.617 65.869,348.392 66.625 C 357.251 75.277,359.020 77.236,359.594 79.028 C 359.870 79.893,360.504 81.050,361.003 81.600 C 362.375 83.114,363.107 84.805,363.772 87.993 C 364.104 89.585,364.830 91.663,365.385 92.611 C 367.718 96.592,367.718 111.408,365.385 115.389 C 364.830 116.337,364.103 118.419,363.770 120.016 C 363.101 123.224,362.790 123.948,361.199 126.000 C 360.602 126.770,359.890 128.086,359.617 128.925 C 359.100 130.514,358.076 131.732,352.904 136.904 C 347.725 142.083,346.514 143.101,344.925 143.609 C 344.086 143.877,342.950 144.504,342.400 145.003 C 340.886 146.375,339.195 147.107,336.007 147.772 C 334.415 148.104,332.337 148.830,331.389 149.385 C 327.408 151.718,312.592 151.718,308.611 149.385 C 307.663 148.830,305.585 148.104,303.993 147.772 C 300.767 147.099,299.360 146.482,298.245 145.249 C 297.830 144.791,296.513 144.051,295.317 143.603 C 293.093 142.771,292.484 142.274,287.100 136.896 C 281.592 131.393,281.289 131.032,280.282 128.751 C 279.736 127.514,279.087 126.377,278.839 126.224 C 278.008 125.711,276.834 122.914,276.227 120.001 C 275.896 118.412,275.188 116.367,274.655 115.456 C 272.356 111.531,272.209 96.546,274.434 92.945 C 274.866 92.246,275.597 90.172,276.059 88.337 C 276.919 84.916,278.040 82.270,278.839 81.776 C 279.087 81.623,279.712 80.542,280.228 79.374 C 281.337 76.868,283.231 74.746,291.600 66.632 C 292.370 65.886,294.012 64.828,295.249 64.282 C 296.486 63.736,297.623 63.087,297.776 62.839 C 298.282 62.021,301.064 60.840,304.054 60.175 C 305.674 59.815,307.734 59.099,308.632 58.583 C 311.387 57.001,319.298 56.398,326.200 57.243 M226.450 107.622 C 235.077 109.057,235.891 109.283,237.757 110.766 C 238.533 111.382,239.998 112.120,241.013 112.404 C 242.028 112.688,243.341 113.400,243.929 113.986 C 244.518 114.572,245.972 115.704,247.159 116.502 C 249.633 118.164,254.653 123.518,256.024 125.956 C 256.534 126.864,257.351 127.869,257.838 128.188 C 258.326 128.508,259.014 129.632,259.366 130.685 C 259.719 131.738,260.639 133.395,261.412 134.367 C 262.184 135.338,263.098 137.138,263.442 138.367 C 263.787 139.595,264.676 141.503,265.418 142.606 C 266.161 143.709,267.135 145.799,267.582 147.249 C 268.030 148.700,268.937 150.566,269.598 151.397 C 270.258 152.228,270.987 153.648,271.218 154.554 C 271.874 157.130,272.417 158.311,273.663 159.879 C 274.298 160.679,274.920 161.798,275.045 162.366 C 275.639 165.078,276.515 167.168,277.409 168.008 C 278.013 168.576,278.775 170.187,279.384 172.185 C 280.000 174.204,280.754 175.793,281.372 176.374 C 281.984 176.949,282.714 178.475,283.266 180.334 C 283.760 181.997,284.640 183.908,285.223 184.579 C 285.806 185.251,286.778 187.295,287.382 189.123 C 287.987 190.951,288.914 192.914,289.444 193.485 C 289.973 194.056,290.759 195.668,291.191 197.066 C 292.095 199.992,292.610 201.079,293.623 202.200 C 294.021 202.640,294.813 204.434,295.385 206.187 C 295.956 207.939,296.757 209.739,297.165 210.187 C 298.180 211.300,299.027 213.055,299.584 215.200 C 299.841 216.190,300.662 217.903,301.410 219.006 C 302.157 220.109,303.135 222.199,303.582 223.649 C 304.030 225.100,304.937 226.966,305.598 227.797 C 306.258 228.628,306.985 230.048,307.214 230.954 C 307.820 233.352,308.803 235.479,309.666 236.260 C 310.082 236.636,310.805 238.261,311.272 239.872 C 311.795 241.670,312.611 243.379,313.387 244.300 C 314.188 245.250,314.920 246.810,315.385 248.553 C 315.844 250.280,316.559 251.809,317.303 252.656 C 318.218 253.698,318.795 255.179,319.826 259.129 C 320.561 261.945,321.351 264.746,321.581 265.351 C 322.758 268.445,319.705 280.792,317.140 283.315 C 316.293 284.148,315.600 285.032,315.600 285.278 C 315.600 286.269,310.198 290.887,308.136 291.658 C 306.994 292.085,305.407 292.878,304.608 293.420 C 301.096 295.803,288.015 295.926,285.400 293.601 C 284.960 293.210,283.240 292.267,281.577 291.507 C 279.871 290.726,278.129 289.600,277.577 288.921 C 277.040 288.259,275.996 287.286,275.259 286.759 C 274.497 286.214,273.395 284.763,272.708 283.400 C 272.042 282.080,270.891 280.324,270.149 279.499 C 269.407 278.673,268.800 277.661,268.800 277.249 C 268.800 275.902,267.590 273.033,266.574 271.973 C 266.020 271.394,265.155 269.557,264.618 267.819 C 264.078 266.068,263.217 264.243,262.652 263.652 C 262.084 263.057,261.195 261.166,260.607 259.303 C 260.035 257.489,259.123 255.527,258.581 254.941 C 258.038 254.356,257.243 252.740,256.814 251.352 C 255.901 248.396,255.100 246.747,254.222 246.018 C 253.875 245.730,253.203 244.213,252.729 242.647 C 252.255 241.081,251.266 238.923,250.530 237.850 C 249.795 236.778,248.910 234.888,248.563 233.650 C 248.216 232.413,247.324 230.497,246.582 229.394 C 245.839 228.291,244.865 226.201,244.418 224.751 C 243.970 223.300,243.063 221.434,242.402 220.603 C 241.742 219.772,241.013 218.352,240.782 217.446 C 240.127 214.874,239.583 213.689,238.347 212.133 C 237.717 211.341,237.015 209.952,236.786 209.046 C 236.184 206.664,235.199 204.523,234.352 203.756 C 233.946 203.390,233.167 201.621,232.619 199.825 C 231.990 197.764,231.249 196.210,230.606 195.606 C 230.000 195.037,229.263 193.556,228.783 191.942 C 227.457 187.492,223.670 184.714,220.545 185.900 C 218.848 186.545,217.891 186.715,211.035 187.595 C 207.594 188.037,203.748 188.743,202.489 189.163 C 198.465 190.508,197.044 190.785,190.961 191.418 C 183.584 192.184,182.343 192.489,175.889 195.116 C 174.385 195.729,172.400 197.399,172.400 198.052 C 172.400 198.240,173.705 199.364,175.300 200.550 C 176.895 201.735,178.623 203.162,179.140 203.721 C 179.656 204.279,180.595 204.950,181.226 205.211 C 181.857 205.472,182.486 206.041,182.624 206.475 C 182.762 206.910,183.632 207.745,184.559 208.333 C 185.485 208.920,186.995 210.121,187.916 211.000 C 191.512 214.438,192.644 215.427,193.800 216.138 C 194.460 216.544,195.630 217.480,196.400 218.219 C 198.461 220.196,202.644 223.647,204.441 224.852 C 205.304 225.431,206.385 226.381,206.843 226.963 C 207.301 227.546,208.339 228.361,209.151 228.775 C 209.962 229.189,210.884 230.009,211.199 230.598 C 211.514 231.187,212.318 231.943,212.986 232.280 C 213.654 232.616,214.957 233.636,215.883 234.546 C 216.809 235.456,218.501 237.010,219.642 238.000 C 220.784 238.990,222.146 240.250,222.669 240.800 C 226.150 244.459,227.111 245.730,227.563 247.272 C 227.842 248.222,228.726 250.170,229.528 251.600 L 230.985 254.200 230.964 260.200 C 230.947 264.961,230.796 266.572,230.234 268.000 C 228.515 272.366,228.034 274.180,227.615 277.870 C 226.984 283.419,226.477 285.736,225.353 288.191 C 224.662 289.699,224.137 292.122,223.575 296.393 C 223.136 299.726,222.494 303.207,222.147 304.127 C 220.357 308.877,220.033 310.116,219.618 313.800 C 218.987 319.408,218.482 321.724,217.351 324.195 C 216.716 325.581,216.162 327.945,215.784 330.870 C 214.958 337.278,214.544 339.000,213.416 340.704 C 212.871 341.527,212.063 343.253,211.621 344.539 C 210.865 346.736,209.721 348.252,206.648 351.123 C 206.014 351.715,204.923 352.783,204.224 353.495 C 203.499 354.234,201.958 355.133,200.641 355.586 C 199.371 356.023,197.312 356.970,196.066 357.690 L 193.800 359.000 188.000 359.000 L 182.200 359.000 179.818 357.650 C 178.507 356.908,176.448 355.961,175.242 355.546 C 174.032 355.129,172.478 354.210,171.776 353.495 C 171.077 352.783,169.986 351.715,169.352 351.123 C 166.279 348.252,165.135 346.736,164.379 344.539 C 163.937 343.253,163.118 341.511,162.560 340.667 C 160.668 337.809,160.245 328.189,161.823 323.939 C 162.178 322.983,162.735 321.490,163.059 320.623 C 163.384 319.755,163.912 317.145,164.233 314.823 C 165.151 308.170,165.620 305.928,166.424 304.353 C 167.173 302.884,167.842 299.674,168.954 292.200 C 169.287 289.963,169.989 287.230,170.548 286.000 C 171.800 283.241,172.477 279.581,172.546 275.200 C 172.615 270.858,171.932 269.567,168.511 267.576 C 167.166 266.793,165.330 265.488,164.432 264.676 C 163.533 263.864,162.564 263.200,162.277 263.200 C 161.991 263.200,161.137 262.554,160.378 261.765 C 159.620 260.976,158.341 259.990,157.536 259.575 C 156.731 259.160,155.231 258.092,154.201 257.201 C 153.172 256.310,151.720 255.327,150.974 255.015 C 150.228 254.703,149.055 253.807,148.368 253.024 C 147.680 252.241,146.862 251.600,146.550 251.600 C 146.238 251.600,145.221 250.903,144.291 250.051 C 143.361 249.199,141.610 247.899,140.400 247.163 C 139.190 246.426,137.891 245.438,137.514 244.966 C 137.136 244.494,136.236 243.872,135.514 243.584 C 134.791 243.295,133.353 242.281,132.317 241.330 C 131.282 240.378,130.253 239.600,130.030 239.600 C 129.808 239.600,128.715 238.790,127.600 237.800 C 126.485 236.810,124.686 235.550,123.601 235.000 C 122.516 234.451,121.427 233.624,121.180 233.163 C 120.933 232.702,119.981 231.993,119.065 231.587 C 118.148 231.182,116.858 230.282,116.199 229.588 C 115.539 228.894,114.307 227.970,113.460 227.535 C 112.613 227.099,111.173 226.060,110.260 225.225 C 109.347 224.390,108.029 223.416,107.332 223.060 C 106.634 222.703,105.675 221.867,105.200 221.200 C 104.725 220.533,103.766 219.694,103.068 219.336 C 102.371 218.977,101.047 217.945,100.126 217.042 C 94.154 211.183,92.884 209.809,92.231 208.504 C 91.875 207.791,91.163 206.932,90.648 206.595 C 90.130 206.256,89.287 204.897,88.757 203.548 C 88.231 202.210,87.242 200.520,86.560 199.793 C 85.601 198.769,85.133 197.667,84.491 194.915 C 84.035 192.959,83.168 190.288,82.564 188.979 C 80.254 183.973,80.270 170.689,82.591 165.782 C 83.178 164.542,83.934 162.059,84.273 160.264 C 84.901 156.929,85.866 154.541,86.949 153.642 C 87.283 153.365,87.854 152.243,88.217 151.148 C 88.581 150.054,89.553 148.379,90.378 147.426 C 91.202 146.473,92.304 145.002,92.827 144.157 C 94.655 141.199,102.394 134.210,105.600 132.622 C 106.810 132.022,108.250 131.038,108.800 130.435 C 109.417 129.758,110.720 129.069,112.200 128.638 C 113.520 128.253,115.500 127.337,116.600 126.603 C 118.059 125.629,119.675 125.037,122.572 124.417 C 124.756 123.949,127.757 123.033,129.241 122.382 C 131.374 121.446,133.093 121.073,137.469 120.597 C 144.382 119.845,144.661 119.791,148.800 118.406 C 150.931 117.693,153.917 117.092,156.800 116.796 C 163.635 116.093,168.074 115.312,170.060 114.460 C 172.089 113.590,175.510 112.985,181.800 112.385 C 186.577 111.928,187.944 111.641,192.204 110.195 C 194.003 109.585,197.227 109.013,201.204 108.599 C 204.612 108.244,209.560 107.624,212.200 107.222 C 218.602 106.246,218.086 106.231,226.450 107.622 M85.963 227.943 C 88.073 230.112,90.430 232.305,91.200 232.815 C 91.970 233.326,93.447 234.521,94.483 235.472 C 95.518 236.422,96.546 237.200,96.767 237.200 C 96.988 237.200,97.868 237.906,98.722 238.768 C 99.576 239.631,100.896 240.597,101.656 240.914 C 102.415 241.231,103.347 241.964,103.725 242.542 C 104.104 243.121,105.266 244.027,106.307 244.557 C 107.348 245.087,108.650 246.006,109.200 246.600 C 109.750 247.194,111.080 248.127,112.155 248.674 C 113.230 249.221,114.557 250.200,115.103 250.849 C 115.649 251.498,116.689 252.277,117.414 252.580 C 118.139 252.883,119.242 253.705,119.866 254.407 C 120.490 255.108,121.720 256.048,122.600 256.494 C 123.480 256.940,124.895 257.930,125.745 258.693 C 126.595 259.455,127.964 260.381,128.787 260.750 C 129.610 261.118,130.909 262.045,131.674 262.810 C 132.438 263.574,133.570 264.543,134.189 264.962 L 135.314 265.723 135.080 269.856 C 134.868 273.586,134.711 274.233,133.468 276.494 C 132.710 277.872,131.783 279.952,131.408 281.115 C 130.989 282.413,130.346 283.479,129.742 283.875 C 129.202 284.229,128.515 284.991,128.216 285.569 C 127.917 286.146,126.923 287.425,126.006 288.409 C 125.090 289.394,123.865 290.830,123.286 291.600 C 121.954 293.369,118.831 296.974,117.048 298.800 C 116.297 299.570,115.407 300.750,115.071 301.422 C 114.735 302.094,114.010 302.849,113.460 303.100 C 112.910 303.351,111.997 304.345,111.432 305.309 C 110.867 306.273,109.953 307.304,109.400 307.600 C 108.847 307.896,107.946 308.905,107.396 309.842 C 106.847 310.780,106.058 311.655,105.643 311.786 C 105.229 311.918,104.400 312.766,103.801 313.671 C 103.202 314.575,102.057 315.986,101.256 316.806 C 99.187 318.924,95.583 323.040,94.869 324.101 C 94.536 324.595,93.384 325.990,92.308 327.200 C 91.232 328.410,89.598 330.249,88.676 331.287 C 87.754 332.325,86.170 334.040,85.155 335.097 C 84.141 336.155,83.183 337.423,83.027 337.915 C 82.871 338.407,82.229 339.075,81.600 339.400 C 80.971 339.725,80.060 340.695,79.577 341.556 C 79.094 342.416,78.277 343.345,77.762 343.620 C 77.247 343.896,76.380 344.769,75.834 345.561 C 73.637 348.750,66.728 355.066,65.040 355.430 C 64.358 355.576,62.370 356.440,60.622 357.348 L 57.444 359.000 51.822 359.000 L 46.200 359.000 43.934 357.690 C 42.688 356.970,40.646 356.029,39.395 355.598 C 37.356 354.897,36.272 354.095,33.300 351.092 C 29.749 347.504,29.105 346.651,28.396 344.588 C 27.969 343.347,27.075 341.379,26.409 340.216 C 24.210 336.372,24.304 326.665,26.572 323.327 C 27.134 322.501,27.972 320.687,28.434 319.297 C 28.979 317.660,29.622 316.542,30.258 316.125 C 30.799 315.771,31.488 315.004,31.789 314.421 C 32.091 313.837,34.332 311.143,36.769 308.435 C 39.206 305.726,41.200 303.360,41.200 303.177 C 41.200 302.859,43.372 300.451,46.769 297.000 C 47.636 296.120,48.572 294.892,48.850 294.270 C 49.128 293.649,49.848 292.885,50.450 292.574 C 51.052 292.263,51.940 291.305,52.423 290.444 C 52.906 289.584,53.723 288.655,54.238 288.380 C 54.753 288.104,55.650 287.160,56.231 286.282 C 56.812 285.403,57.943 284.014,58.744 283.194 C 61.008 280.877,64.232 277.152,65.557 275.323 C 66.219 274.410,67.017 273.513,67.331 273.331 C 67.645 273.149,68.337 272.370,68.868 271.600 C 69.811 270.232,71.600 268.224,74.750 265.000 C 75.610 264.120,76.588 262.854,76.923 262.186 C 77.258 261.518,77.977 260.733,78.522 260.442 C 80.528 259.368,80.577 258.949,80.703 241.800 C 80.813 226.858,81.010 224.000,81.931 224.000 C 82.038 224.000,83.853 225.775,85.963 227.943 M336.400 321.234 C 337.390 321.462,338.560 321.972,339.000 322.367 C 339.440 322.763,340.752 323.594,341.915 324.215 C 344.372 325.526,346.773 327.984,348.017 330.460 C 348.497 331.417,349.250 332.592,349.689 333.072 C 351.703 335.273,351.576 344.885,349.502 347.134 C 348.961 347.720,348.123 349.040,347.639 350.067 C 346.613 352.248,343.781 355.002,341.676 355.868 C 340.864 356.201,339.750 356.897,339.200 357.414 C 336.783 359.685,327.410 359.822,325.000 357.621 C 324.560 357.219,323.417 356.497,322.460 356.017 C 319.984 354.773,317.526 352.372,316.215 349.915 C 315.594 348.752,314.763 347.440,314.367 347.000 C 312.297 344.696,312.306 335.269,314.380 333.000 C 314.783 332.560,315.566 331.300,316.122 330.200 C 317.343 327.783,319.957 325.200,322.400 323.997 C 323.390 323.509,324.566 322.775,325.013 322.367 C 326.570 320.944,332.557 320.349,336.400 321.234 " stroke="none" fill="#384c9a" fill-rule="evenodd"></path></g></svg>