<svg id="svg" version="1.1" xmlns="http://www.w3.org/2000/svg" xmlns:xlink="http://www.w3.org/1999/xlink" width="400" height="400" viewBox="0, 0, 400,400"><g id="svgg"><path id="path0" d="M348.800 25.904 C 348.250 25.994,345.952 26.683,343.694 27.434 C 341.436 28.185,339.224 28.800,338.779 28.800 C 338.053 28.800,336.639 29.961,333.300 33.300 C 330.031 36.569,328.800 38.042,328.800 38.685 C 328.799 45.112,323.355 51.277,316.457 52.661 C 314.283 53.097,312.533 53.741,311.213 54.592 C 309.867 55.459,308.103 56.100,305.716 56.591 C 303.384 57.071,301.459 57.762,300.000 58.646 C 298.691 59.439,296.615 60.225,294.874 60.589 C 291.800 61.231,291.225 61.464,289.001 62.973 C 288.247 63.485,286.408 64.121,284.915 64.386 C 281.153 65.054,279.789 65.516,277.650 66.844 C 276.520 67.545,274.515 68.250,272.497 68.654 C 270.259 69.102,268.543 69.735,267.173 70.618 C 266.061 71.334,264.495 72.043,263.694 72.193 C 260.481 72.796,257.778 74.918,256.585 77.774 C 254.752 82.162,255.893 90.162,258.506 91.244 C 259.194 91.529,260.352 92.285,261.080 92.924 C 263.515 95.062,268.354 95.288,271.200 93.396 C 272.594 92.470,273.474 92.176,278.372 90.998 C 279.787 90.658,281.713 89.871,282.652 89.249 C 283.594 88.625,285.489 87.894,286.879 87.619 C 290.593 86.884,292.061 86.382,293.400 85.389 C 294.764 84.377,296.312 83.849,299.914 83.167 C 301.395 82.886,303.170 82.199,304.235 81.494 C 305.391 80.728,307.455 79.963,309.974 79.368 C 312.257 78.829,314.539 78.010,315.412 77.418 C 316.931 76.387,317.693 76.122,322.400 74.992 C 323.830 74.648,325.658 73.912,326.462 73.356 C 330.860 70.312,337.490 70.270,346.566 73.229 C 349.844 74.297,351.211 74.208,356.172 72.600 C 358.547 71.830,360.837 71.200,361.261 71.200 C 362.605 71.200,371.200 62.597,371.200 61.251 C 371.200 60.823,371.772 58.791,372.471 56.736 C 373.453 53.847,373.741 52.320,373.741 50.000 C 373.741 47.680,373.453 46.153,372.471 43.264 C 371.772 41.209,371.200 39.177,371.200 38.749 C 371.200 37.403,362.605 28.800,361.261 28.800 C 360.837 28.800,358.626 28.199,356.346 27.463 C 351.700 25.965,350.253 25.667,348.800 25.904 M63.600 68.678 C 61.611 68.892,60.057 69.559,58.078 71.049 C 57.130 71.763,55.826 72.463,55.179 72.605 C 54.468 72.761,53.433 73.557,52.566 74.616 C 51.776 75.580,50.782 76.479,50.356 76.614 C 49.931 76.749,49.157 77.701,48.635 78.730 C 48.113 79.758,47.292 80.956,46.810 81.392 C 42.088 85.660,42.465 106.200,47.349 110.759 C 47.914 111.286,48.579 112.329,48.825 113.077 C 49.113 113.948,49.832 114.789,50.826 115.416 C 51.679 115.955,52.657 116.937,52.999 117.598 C 53.341 118.259,53.841 118.802,54.110 118.804 C 54.941 118.811,58.828 120.753,60.023 121.758 C 63.343 124.552,79.303 124.091,82.521 121.108 C 83.098 120.573,84.252 119.924,85.085 119.666 C 86.032 119.374,87.651 118.171,89.400 116.463 C 94.193 111.782,94.769 111.050,95.440 108.789 C 95.796 107.592,96.739 105.368,97.537 103.845 L 98.987 101.077 98.987 95.825 L 98.987 90.573 97.323 87.187 C 96.407 85.324,95.543 83.224,95.402 82.520 C 95.261 81.816,94.425 80.466,93.544 79.520 C 88.930 74.565,87.238 73.025,85.600 72.293 C 84.610 71.850,83.233 70.994,82.541 70.392 C 80.558 68.667,71.412 67.839,63.600 68.678 M220.037 89.240 C 219.287 89.468,218.117 90.077,217.437 90.592 C 216.239 91.500,213.321 92.481,210.357 92.975 C 209.564 93.107,208.070 93.774,207.037 94.459 C 205.788 95.286,203.799 96.024,201.092 96.663 C 198.855 97.192,196.660 97.952,196.213 98.353 C 194.957 99.478,194.606 99.618,190.503 100.634 C 188.318 101.175,186.022 102.030,185.171 102.620 C 183.767 103.593,181.288 104.400,177.957 104.968 C 177.164 105.104,175.659 105.782,174.612 106.475 C 173.373 107.296,171.396 108.045,168.939 108.624 C 166.617 109.172,164.560 109.935,163.586 110.610 C 162.702 111.222,160.387 112.126,158.337 112.658 C 156.320 113.182,153.898 114.122,152.955 114.746 C 152.007 115.375,150.115 116.105,148.721 116.381 C 144.957 117.126,143.531 117.622,142.161 118.661 C 141.038 119.514,135.627 121.200,134.015 121.200 C 133.653 121.200,132.620 121.742,131.720 122.405 C 130.591 123.235,128.793 123.928,125.941 124.632 C 123.663 125.195,121.440 125.980,121.000 126.377 C 119.774 127.485,118.863 127.852,115.495 128.596 C 113.787 128.974,111.721 129.736,110.904 130.291 C 109.072 131.534,107.387 132.136,103.923 132.782 C 102.234 133.097,100.505 133.759,99.239 134.575 C 97.888 135.445,96.095 136.107,93.758 136.597 C 91.252 137.123,89.938 137.627,89.042 138.405 C 88.359 138.998,87.170 139.780,86.400 140.142 C 84.671 140.955,80.953 144.532,80.125 146.179 C 79.787 146.851,79.004 147.940,78.385 148.600 C 75.483 151.694,75.629 167.274,78.589 170.400 C 79.110 170.950,79.975 172.400,80.512 173.623 C 81.049 174.846,82.136 176.695,82.928 177.733 C 83.720 178.770,84.549 180.276,84.771 181.079 C 84.993 181.883,85.781 183.183,86.523 183.970 C 87.266 184.756,88.280 186.390,88.777 187.600 C 89.274 188.810,90.182 190.340,90.795 191.000 C 91.407 191.660,92.263 193.020,92.697 194.022 C 93.131 195.024,94.134 196.693,94.927 197.731 C 95.719 198.769,96.549 200.276,96.771 201.079 C 96.993 201.883,97.781 203.183,98.523 203.970 C 99.266 204.756,100.280 206.390,100.777 207.600 C 101.274 208.810,102.182 210.340,102.795 211.000 C 103.407 211.660,104.263 213.020,104.697 214.022 C 105.131 215.024,106.134 216.693,106.927 217.731 C 107.719 218.769,108.549 220.276,108.771 221.079 C 108.993 221.883,109.781 223.183,110.523 223.970 C 111.266 224.756,112.280 226.390,112.777 227.600 C 113.274 228.810,114.182 230.340,114.795 231.000 C 115.407 231.660,116.263 233.020,116.697 234.022 C 117.131 235.024,118.134 236.693,118.927 237.731 C 119.719 238.769,120.549 240.276,120.771 241.079 C 120.993 241.883,121.788 243.183,122.539 243.970 C 125.443 247.012,125.400 246.504,125.400 277.400 C 125.400 307.763,125.461 306.953,122.910 310.284 C 122.103 311.338,120.944 313.225,120.335 314.479 C 119.725 315.732,118.885 316.940,118.468 317.164 C 118.050 317.387,117.302 318.657,116.805 319.985 C 116.309 321.314,115.400 322.896,114.786 323.500 C 114.171 324.105,113.229 325.590,112.692 326.800 C 112.155 328.010,111.305 329.360,110.803 329.800 C 110.301 330.240,109.368 331.770,108.730 333.200 C 108.092 334.630,107.064 336.250,106.445 336.800 C 105.826 337.350,105.008 338.652,104.629 339.693 C 104.249 340.735,103.240 342.433,102.385 343.467 C 101.530 344.501,100.715 345.875,100.574 346.519 C 100.432 347.163,99.721 348.349,98.993 349.155 C 98.265 349.961,97.205 351.671,96.637 352.955 C 96.069 354.239,95.078 355.889,94.434 356.623 C 92.248 359.112,92.168 365.474,94.295 367.723 C 94.960 368.425,95.699 369.380,95.936 369.845 C 97.290 372.489,104.657 374.407,107.290 372.801 C 108.011 372.362,108.926 372.002,109.324 372.001 C 110.491 371.999,114.389 367.998,115.643 365.515 C 116.277 364.258,117.133 363.050,117.544 362.830 C 117.955 362.610,118.701 361.334,119.202 359.994 C 119.730 358.582,120.673 357.030,121.445 356.302 C 122.178 355.611,123.047 354.256,123.375 353.291 C 123.704 352.326,124.529 350.903,125.209 350.128 C 125.889 349.354,126.868 347.765,127.384 346.598 C 127.900 345.430,128.853 344.002,129.502 343.424 C 130.151 342.846,130.894 341.663,131.154 340.796 C 131.414 339.928,132.347 338.386,133.227 337.369 C 134.107 336.352,135.256 334.683,135.779 333.660 C 136.303 332.637,137.111 331.571,137.575 331.291 C 138.039 331.011,138.838 329.841,139.351 328.691 C 139.865 327.541,140.684 326.245,141.173 325.810 C 141.661 325.376,142.694 323.888,143.468 322.504 C 144.242 321.120,145.231 319.798,145.664 319.566 C 146.098 319.334,146.812 318.301,147.251 317.272 C 147.690 316.242,148.557 314.860,149.177 314.200 C 150.650 312.633,151.066 311.157,151.600 305.600 C 152.106 300.338,152.481 298.438,153.555 295.713 C 154.391 293.593,154.944 290.224,155.604 283.240 C 156.084 278.154,156.652 275.096,157.393 273.600 C 157.666 273.050,158.209 271.250,158.600 269.600 C 160.110 263.234,162.017 262.009,164.291 265.947 C 164.880 266.966,166.029 268.610,166.844 269.600 C 167.659 270.590,168.611 272.093,168.959 272.939 C 169.307 273.786,170.050 274.839,170.609 275.279 C 171.169 275.719,172.053 276.916,172.574 277.939 C 173.095 278.963,174.007 280.250,174.600 280.800 C 175.194 281.350,176.201 282.828,176.838 284.085 C 177.475 285.342,178.364 286.567,178.814 286.808 C 179.264 287.048,180.099 288.232,180.670 289.437 C 181.241 290.643,182.026 291.800,182.416 292.009 C 182.805 292.217,183.802 293.605,184.631 295.094 C 185.460 296.582,186.478 298.043,186.893 298.339 C 187.308 298.636,188.103 299.841,188.660 301.017 C 189.217 302.193,190.105 303.439,190.633 303.785 C 191.162 304.131,192.070 305.356,192.653 306.507 C 193.235 307.658,194.395 309.377,195.230 310.327 C 196.065 311.277,196.864 312.579,197.005 313.221 C 197.146 313.864,197.791 314.767,198.440 315.228 C 199.088 315.690,199.998 316.817,200.462 317.734 C 200.926 318.650,201.906 320.069,202.639 320.886 C 203.372 321.703,204.410 323.233,204.946 324.286 C 205.482 325.339,206.398 326.645,206.981 327.189 C 207.564 327.733,208.375 328.933,208.783 329.855 C 209.191 330.777,209.875 331.719,210.304 331.948 C 210.732 332.178,211.726 333.589,212.512 335.085 C 213.298 336.580,214.413 338.215,214.991 338.718 C 215.569 339.220,216.371 340.399,216.774 341.339 C 217.176 342.278,217.975 343.354,218.550 343.730 C 219.124 344.107,220.064 345.356,220.639 346.507 C 221.214 347.658,222.196 349.140,222.822 349.800 C 223.447 350.460,224.327 351.834,224.777 352.852 C 225.227 353.871,226.045 355.000,226.595 355.360 C 227.144 355.720,228.026 356.866,228.554 357.907 C 229.082 358.948,229.891 360.141,230.352 360.558 C 230.813 360.975,231.764 362.235,232.464 363.358 C 233.164 364.481,234.314 366.030,235.019 366.800 C 235.725 367.570,236.549 368.723,236.851 369.363 C 237.153 370.003,237.670 370.662,238.000 370.828 C 245.397 374.546,245.532 374.552,252.413 371.476 C 255.810 369.958,257.353 364.530,255.971 358.962 C 254.789 354.204,254.410 353.233,253.552 352.774 C 253.120 352.543,252.140 351.064,251.372 349.487 C 250.604 347.909,249.539 346.162,249.004 345.604 C 248.469 345.045,247.754 343.803,247.415 342.842 C 247.076 341.881,246.185 340.416,245.435 339.586 C 244.684 338.755,243.668 336.971,243.175 335.620 C 242.683 334.269,241.939 332.982,241.524 332.759 C 241.108 332.537,240.140 331.064,239.372 329.487 C 238.604 327.909,237.539 326.162,237.004 325.604 C 236.469 325.045,235.754 323.803,235.415 322.842 C 235.076 321.881,234.191 320.422,233.448 319.600 C 232.705 318.778,231.704 317.055,231.224 315.773 C 230.745 314.491,229.992 313.189,229.551 312.881 C 229.111 312.573,228.127 311.037,227.364 309.470 C 226.601 307.902,225.539 306.162,225.004 305.604 C 224.469 305.045,223.754 303.803,223.415 302.842 C 223.076 301.881,222.185 300.416,221.435 299.586 C 220.684 298.755,219.668 296.971,219.175 295.620 C 218.683 294.269,217.945 292.985,217.537 292.766 C 217.129 292.548,216.147 291.071,215.355 289.484 C 214.564 287.898,213.492 286.147,212.974 285.594 C 212.455 285.041,211.754 283.803,211.415 282.842 C 211.076 281.881,210.185 280.416,209.435 279.586 C 208.684 278.755,207.668 276.971,207.175 275.620 C 206.683 274.269,205.945 272.985,205.537 272.766 C 205.129 272.548,204.147 271.071,203.355 269.484 C 202.564 267.898,201.492 266.147,200.974 265.594 C 200.455 265.041,199.754 263.803,199.415 262.842 C 199.076 261.881,198.185 260.416,197.435 259.586 C 196.684 258.755,195.668 256.971,195.175 255.620 C 194.683 254.269,193.945 252.985,193.537 252.766 C 193.129 252.548,192.147 251.071,191.355 249.484 C 190.564 247.898,189.492 246.147,188.974 245.594 C 188.455 245.041,187.754 243.803,187.415 242.842 C 187.076 241.881,186.191 240.422,185.448 239.600 C 184.705 238.778,183.702 237.046,183.220 235.752 C 182.739 234.459,181.909 233.040,181.378 232.600 C 180.847 232.160,179.894 230.532,179.262 228.981 C 178.630 227.431,177.682 225.698,177.156 225.130 C 176.629 224.562,175.845 223.056,175.412 221.782 C 174.979 220.508,174.052 218.781,173.353 217.943 C 172.653 217.106,171.777 215.454,171.405 214.272 C 171.033 213.090,170.206 211.510,169.566 210.762 C 168.926 210.013,167.973 208.291,167.449 206.937 C 166.925 205.582,165.955 203.782,165.293 202.937 C 164.631 202.091,163.784 200.455,163.412 199.299 C 163.040 198.143,162.120 196.461,161.368 195.561 C 160.616 194.661,159.718 192.955,159.374 191.768 C 159.029 190.582,158.135 188.880,157.387 187.984 C 156.639 187.089,155.718 185.332,155.340 184.079 C 154.962 182.825,154.132 181.236,153.494 180.548 C 152.857 179.859,151.888 178.059,151.342 176.548 C 150.796 175.036,149.848 173.260,149.236 172.600 C 148.623 171.940,147.718 170.288,147.224 168.930 C 146.729 167.571,145.812 165.885,145.185 165.183 C 144.558 164.481,143.734 162.917,143.354 161.709 C 142.974 160.500,142.082 158.816,141.372 157.966 C 140.662 157.117,139.772 155.438,139.394 154.236 C 139.016 153.034,138.328 151.644,137.866 151.148 C 137.074 150.298,136.342 146.775,136.720 145.639 C 136.963 144.912,139.165 143.934,142.361 143.135 C 143.989 142.728,146.121 141.865,147.098 141.218 C 148.075 140.571,149.893 139.840,151.138 139.594 C 154.545 138.921,156.073 138.375,157.432 137.344 C 158.526 136.513,163.983 134.822,165.621 134.806 C 165.963 134.803,166.973 134.263,167.866 133.606 C 168.764 132.946,170.633 132.135,172.045 131.793 C 177.279 130.526,178.006 130.281,179.253 129.361 C 180.670 128.316,181.924 127.865,185.237 127.211 C 186.468 126.968,188.407 126.168,189.548 125.433 C 190.956 124.527,192.716 123.868,195.027 123.383 C 197.333 122.899,199.098 122.239,200.498 121.337 C 201.635 120.605,203.203 119.898,203.982 119.767 C 206.895 119.277,210.026 118.271,210.841 117.565 C 211.852 116.688,214.031 115.893,217.786 115.029 C 219.319 114.677,221.224 113.938,222.020 113.386 C 222.816 112.834,225.043 111.949,226.969 111.420 C 230.076 110.565,231.544 109.703,231.587 108.708 C 231.594 108.548,232.298 108.060,233.151 107.625 C 234.953 106.706,234.966 106.679,235.639 102.675 C 236.396 98.171,235.152 92.400,233.424 92.400 C 233.117 92.400,232.243 91.649,231.481 90.732 L 230.095 89.064 225.748 88.944 C 223.356 88.878,220.787 89.011,220.037 89.240 " stroke="none" fill="#06060a" fill-rule="evenodd"></path><path id="path1" d="M0.000 200.000 L 0.000 400.000 200.000 400.000 L 400.000 400.000 400.000 200.000 L 400.000 0.000 200.000 0.000 L 0.000 0.000 0.000 200.000 M356.346 27.463 C 358.626 28.199,360.837 28.800,361.261 28.800 C 362.605 28.800,371.200 37.403,371.200 38.749 C 371.200 39.177,371.772 41.209,372.471 43.264 C 373.453 46.153,373.741 47.680,373.741 50.000 C 373.741 52.320,373.453 53.847,372.471 56.736 C 371.772 58.791,371.200 60.823,371.200 61.251 C 371.200 62.597,362.605 71.200,361.261 71.200 C 360.837 71.200,358.547 71.830,356.172 72.600 C 351.211 74.208,349.844 74.297,346.566 73.229 C 337.490 70.270,330.860 70.312,326.462 73.356 C 325.658 73.912,323.830 74.648,322.400 74.992 C 317.693 76.122,316.931 76.387,315.412 77.418 C 314.539 78.010,312.257 78.829,309.974 79.368 C 307.455 79.963,305.391 80.728,304.235 81.494 C 303.170 82.199,301.395 82.886,299.914 83.167 C 296.312 83.849,294.764 84.377,293.400 85.389 C 292.061 86.382,290.593 86.884,286.879 87.619 C 285.489 87.894,283.594 88.625,282.652 89.249 C 281.713 89.871,279.787 90.658,278.372 90.998 C 273.474 92.176,272.594 92.470,271.200 93.396 C 268.354 95.288,263.515 95.062,261.080 92.924 C 260.352 92.285,259.194 91.529,258.506 91.244 C 255.893 90.162,254.752 82.162,256.585 77.774 C 257.778 74.918,260.481 72.796,263.694 72.193 C 264.495 72.043,266.061 71.334,267.173 70.618 C 268.543 69.735,270.259 69.102,272.497 68.654 C 274.515 68.250,276.520 67.545,277.650 66.844 C 279.789 65.516,281.153 65.054,284.915 64.386 C 286.408 64.121,288.247 63.485,289.001 62.973 C 291.225 61.464,291.800 61.231,294.874 60.589 C 296.615 60.225,298.691 59.439,300.000 58.646 C 301.459 57.762,303.384 57.071,305.716 56.591 C 308.103 56.100,309.867 55.459,311.213 54.592 C 312.533 53.741,314.283 53.097,316.457 52.661 C 323.355 51.277,328.799 45.112,328.800 38.685 C 328.800 38.042,330.031 36.569,333.300 33.300 C 336.639 29.961,338.053 28.800,338.779 28.800 C 339.224 28.800,341.436 28.185,343.694 27.434 C 349.956 25.351,349.791 25.350,356.346 27.463 M78.708 68.848 C 80.504 69.161,81.663 69.628,82.541 70.392 C 83.233 70.994,84.610 71.850,85.600 72.293 C 87.238 73.025,88.930 74.565,93.544 79.520 C 94.425 80.466,95.261 81.816,95.402 82.520 C 95.543 83.224,96.407 85.324,97.323 87.187 L 98.987 90.573 98.987 95.825 L 98.987 101.077 97.537 103.845 C 96.739 105.368,95.796 107.592,95.440 108.789 C 94.769 111.050,94.193 111.782,89.400 116.463 C 87.651 118.171,86.032 119.374,85.085 119.666 C 84.252 119.924,83.098 120.573,82.521 121.108 C 79.303 124.091,63.343 124.552,60.023 121.758 C 58.828 120.753,54.941 118.811,54.110 118.804 C 53.841 118.802,53.341 118.259,52.999 117.598 C 52.657 116.937,51.679 115.955,50.826 115.416 C 49.832 114.789,49.113 113.948,48.825 113.077 C 48.579 112.329,47.914 111.286,47.349 110.759 C 42.465 106.200,42.088 85.660,46.810 81.392 C 47.292 80.956,48.113 79.758,48.635 78.730 C 49.157 77.701,49.931 76.749,50.356 76.614 C 50.782 76.479,51.776 75.580,52.566 74.616 C 53.433 73.557,54.468 72.761,55.179 72.605 C 55.826 72.463,57.130 71.763,58.078 71.049 C 60.057 69.559,61.611 68.892,63.600 68.678 C 66.862 68.328,76.333 68.435,78.708 68.848 M231.481 90.732 C 232.243 91.649,233.117 92.400,233.424 92.400 C 235.152 92.400,236.396 98.171,235.639 102.675 C 234.966 106.679,234.953 106.706,233.151 107.625 C 232.298 108.060,231.594 108.548,231.587 108.708 C 231.544 109.703,230.076 110.565,226.969 111.420 C 225.043 111.949,222.816 112.834,222.020 113.386 C 221.224 113.938,219.319 114.677,217.786 115.029 C 214.031 115.893,211.852 116.688,210.841 117.565 C 210.026 118.271,206.895 119.277,203.982 119.767 C 203.203 119.898,201.635 120.605,200.498 121.337 C 199.098 122.239,197.333 122.899,195.027 123.383 C 192.716 123.868,190.956 124.527,189.548 125.433 C 188.407 126.168,186.468 126.968,185.237 127.211 C 181.924 127.865,180.670 128.316,179.253 129.361 C 178.006 130.281,177.279 130.526,172.045 131.793 C 170.633 132.135,168.764 132.946,167.866 133.606 C 166.973 134.263,165.963 134.803,165.621 134.806 C 163.983 134.822,158.526 136.513,157.432 137.344 C 156.073 138.375,154.545 138.921,151.138 139.594 C 149.893 139.840,148.075 140.571,147.098 141.218 C 146.121 141.865,143.989 142.728,142.361 143.135 C 139.165 143.934,136.963 144.912,136.720 145.639 C 136.342 146.775,137.074 150.298,137.866 151.148 C 138.328 151.644,139.016 153.034,139.394 154.236 C 139.772 155.438,140.662 157.117,141.372 157.966 C 142.082 158.816,142.974 160.500,143.354 161.709 C 143.734 162.917,144.558 164.481,145.185 165.183 C 145.812 165.885,146.729 167.571,147.224 168.930 C 147.718 170.288,148.623 171.940,149.236 172.600 C 149.848 173.260,150.796 175.036,151.342 176.548 C 151.888 178.059,152.857 179.859,153.494 180.548 C 154.132 181.236,154.962 182.825,155.340 184.079 C 155.718 185.332,156.639 187.089,157.387 187.984 C 158.135 188.880,159.029 190.582,159.374 191.768 C 159.718 192.955,160.616 194.661,161.368 195.561 C 162.120 196.461,163.040 198.143,163.412 199.299 C 163.784 200.455,164.631 202.091,165.293 202.937 C 165.955 203.782,166.925 205.582,167.449 206.937 C 167.973 208.291,168.926 210.013,169.566 210.762 C 170.206 211.510,171.033 213.090,171.405 214.272 C 171.777 215.454,172.653 217.106,173.353 217.943 C 174.052 218.781,174.979 220.508,175.412 221.782 C 175.845 223.056,176.629 224.562,177.156 225.130 C 177.682 225.698,178.630 227.431,179.262 228.981 C 179.894 230.532,180.847 232.160,181.378 232.600 C 181.909 233.040,182.739 234.459,183.220 235.752 C 183.702 237.046,184.705 238.778,185.448 239.600 C 186.191 240.422,187.076 241.881,187.415 242.842 C 187.754 243.803,188.455 245.041,188.974 245.594 C 189.492 246.147,190.564 247.898,191.355 249.484 C 192.147 251.071,193.129 252.548,193.537 252.766 C 193.945 252.985,194.683 254.269,195.175 255.620 C 195.668 256.971,196.684 258.755,197.435 259.586 C 198.185 260.416,199.076 261.881,199.415 262.842 C 199.754 263.803,200.455 265.041,200.974 265.594 C 201.492 266.147,202.564 267.898,203.355 269.484 C 204.147 271.071,205.129 272.548,205.537 272.766 C 205.945 272.985,206.683 274.269,207.175 275.620 C 207.668 276.971,208.684 278.755,209.435 279.586 C 210.185 280.416,211.076 281.881,211.415 282.842 C 211.754 283.803,212.455 285.041,212.974 285.594 C 213.492 286.147,214.564 287.898,215.355 289.484 C 216.147 291.071,217.129 292.548,217.537 292.766 C 217.945 292.985,218.683 294.269,219.175 295.620 C 219.668 296.971,220.684 298.755,221.435 299.586 C 222.185 300.416,223.076 301.881,223.415 302.842 C 223.754 303.803,224.469 305.045,225.004 305.604 C 225.539 306.162,226.601 307.902,227.364 309.470 C 228.127 311.037,229.111 312.573,229.551 312.881 C 229.992 313.189,230.745 314.491,231.224 315.773 C 231.704 317.055,232.705 318.778,233.448 319.600 C 234.191 320.422,235.076 321.881,235.415 322.842 C 235.754 323.803,236.469 325.045,237.004 325.604 C 237.539 326.162,238.604 327.909,239.372 329.487 C 240.140 331.064,241.108 332.537,241.524 332.759 C 241.939 332.982,242.683 334.269,243.175 335.620 C 243.668 336.971,244.684 338.755,245.435 339.586 C 246.185 340.416,247.076 341.881,247.415 342.842 C 247.754 343.803,248.469 345.045,249.004 345.604 C 249.539 346.162,250.604 347.909,251.372 349.487 C 252.140 351.064,253.120 352.543,253.552 352.774 C 254.410 353.233,254.789 354.204,255.971 358.962 C 257.353 364.530,255.810 369.958,252.413 371.476 C 245.532 374.552,245.397 374.546,238.000 370.828 C 237.670 370.662,237.153 370.003,236.851 369.363 C 236.549 368.723,235.725 367.570,235.019 366.800 C 234.314 366.030,233.164 364.481,232.464 363.358 C 231.764 362.235,230.813 360.975,230.352 360.558 C 229.891 360.141,229.082 358.948,228.554 357.907 C 228.026 356.866,227.144 355.720,226.595 355.360 C 226.045 355.000,225.227 353.871,224.777 352.852 C 224.327 351.834,223.447 350.460,222.822 349.800 C 222.196 349.140,221.214 347.658,220.639 346.507 C 220.064 345.356,219.124 344.107,218.550 343.730 C 217.975 343.354,217.176 342.278,216.774 341.339 C 216.371 340.399,215.569 339.220,214.991 338.718 C 214.413 338.215,213.298 336.580,212.512 335.085 C 211.726 333.589,210.732 332.178,210.304 331.948 C 209.875 331.719,209.191 330.777,208.783 329.855 C 208.375 328.933,207.564 327.733,206.981 327.189 C 206.398 326.645,205.482 325.339,204.946 324.286 C 204.410 323.233,203.372 321.703,202.639 320.886 C 201.906 320.069,200.926 318.650,200.462 317.734 C 199.998 316.817,199.088 315.690,198.440 315.228 C 197.791 314.767,197.146 313.864,197.005 313.221 C 196.864 312.579,196.065 311.277,195.230 310.327 C 194.395 309.377,193.235 307.658,192.653 306.507 C 192.070 305.356,191.162 304.131,190.633 303.785 C 190.105 303.439,189.217 302.193,188.660 301.017 C 188.103 299.841,187.308 298.636,186.893 298.339 C 186.478 298.043,185.460 296.582,184.631 295.094 C 183.802 293.605,182.805 292.217,182.416 292.009 C 182.026 291.800,181.241 290.643,180.670 289.437 C 180.099 288.232,179.264 287.048,178.814 286.808 C 178.364 286.567,177.475 285.342,176.838 284.085 C 176.201 282.828,175.194 281.350,174.600 280.800 C 174.007 280.250,173.095 278.963,172.574 277.939 C 172.053 276.916,171.169 275.719,170.609 275.279 C 170.050 274.839,169.307 273.786,168.959 272.939 C 168.611 272.093,167.659 270.590,166.844 269.600 C 166.029 268.610,164.880 266.966,164.291 265.947 C 162.017 262.009,160.110 263.234,158.600 269.600 C 158.209 271.250,157.666 273.050,157.393 273.600 C 156.652 275.096,156.084 278.154,155.604 283.240 C 154.944 290.224,154.391 293.593,153.555 295.713 C 152.481 298.438,152.106 300.338,151.600 305.600 C 151.066 311.157,150.650 312.633,149.177 314.200 C 148.557 314.860,147.690 316.242,147.251 317.272 C 146.812 318.301,146.098 319.334,145.664 319.566 C 145.231 319.798,144.242 321.120,143.468 322.504 C 142.694 323.888,141.661 325.376,141.173 325.810 C 140.684 326.245,139.865 327.541,139.351 328.691 C 138.838 329.841,138.039 331.011,137.575 331.291 C 137.111 331.571,136.303 332.637,135.779 333.660 C 135.256 334.683,134.107 336.352,133.227 337.369 C 132.347 338.386,131.414 339.928,131.154 340.796 C 130.894 341.663,130.151 342.846,129.502 343.424 C 128.853 344.002,127.900 345.430,127.384 346.598 C 126.868 347.765,125.889 349.354,125.209 350.128 C 124.529 350.903,123.704 352.326,123.375 353.291 C 123.047 354.256,122.178 355.611,121.445 356.302 C 120.673 357.030,119.730 358.582,119.202 359.994 C 118.701 361.334,117.955 362.610,117.544 362.830 C 117.133 363.050,116.277 364.258,115.643 365.515 C 114.389 367.998,110.491 371.999,109.324 372.001 C 108.926 372.002,108.011 372.362,107.290 372.801 C 104.657 374.407,97.290 372.489,95.936 369.845 C 95.699 369.380,94.960 368.425,94.295 367.723 C 92.168 365.474,92.248 359.112,94.434 356.623 C 95.078 355.889,96.069 354.239,96.637 352.955 C 97.205 351.671,98.265 349.961,98.993 349.155 C 99.721 348.349,100.432 347.163,100.574 346.519 C 100.715 345.875,101.530 344.501,102.385 343.467 C 103.240 342.433,104.249 340.735,104.629 339.693 C 105.008 338.652,105.826 337.350,106.445 336.800 C 107.064 336.250,108.092 334.630,108.730 333.200 C 109.368 331.770,110.301 330.240,110.803 329.800 C 111.305 329.360,112.155 328.010,112.692 326.800 C 113.229 325.590,114.171 324.105,114.786 323.500 C 115.400 322.896,116.309 321.314,116.805 319.985 C 117.302 318.657,118.050 317.387,118.468 317.164 C 118.885 316.940,119.725 315.732,120.335 314.479 C 120.944 313.225,122.103 311.338,122.910 310.284 C 125.461 306.953,125.400 307.763,125.400 277.400 C 125.400 246.504,125.443 247.012,122.539 243.970 C 121.788 243.183,120.993 241.883,120.771 241.079 C 120.549 240.276,119.719 238.769,118.927 237.731 C 118.134 236.693,117.131 235.024,116.697 234.022 C 116.263 233.020,115.407 231.660,114.795 231.000 C 114.182 230.340,113.274 228.810,112.777 227.600 C 112.280 226.390,111.266 224.756,110.523 223.970 C 109.781 223.183,108.993 221.883,108.771 221.079 C 108.549 220.276,107.719 218.769,106.927 217.731 C 106.134 216.693,105.131 215.024,104.697 214.022 C 104.263 213.020,103.407 211.660,102.795 211.000 C 102.182 210.340,101.274 208.810,100.777 207.600 C 100.280 206.390,99.266 204.756,98.523 203.970 C 97.781 203.183,96.993 201.883,96.771 201.079 C 96.549 200.276,95.719 198.769,94.927 197.731 C 94.134 196.693,93.131 195.024,92.697 194.022 C 92.263 193.020,91.407 191.660,90.795 191.000 C 90.182 190.340,89.274 188.810,88.777 187.600 C 88.280 186.390,87.266 184.756,86.523 183.970 C 85.781 183.183,84.993 181.883,84.771 181.079 C 84.549 180.276,83.720 178.770,82.928 177.733 C 82.136 176.695,81.049 174.846,80.512 173.623 C 79.975 172.400,79.110 170.950,78.589 170.400 C 75.629 167.274,75.483 151.694,78.385 148.600 C 79.004 147.940,79.787 146.851,80.125 146.179 C 80.953 144.532,84.671 140.955,86.400 140.142 C 87.170 139.780,88.359 138.998,89.042 138.405 C 89.938 137.627,91.252 137.123,93.758 136.597 C 96.095 136.107,97.888 135.445,99.239 134.575 C 100.505 133.759,102.234 133.097,103.923 132.782 C 107.387 132.136,109.072 131.534,110.904 130.291 C 111.721 129.736,113.787 128.974,115.495 128.596 C 118.863 127.852,119.774 127.485,121.000 126.377 C 121.440 125.980,123.663 125.195,125.941 124.632 C 128.793 123.928,130.591 123.235,131.720 122.405 C 132.620 121.742,133.653 121.200,134.015 121.200 C 135.627 121.200,141.038 119.514,142.161 118.661 C 143.531 117.622,144.957 117.126,148.721 116.381 C 150.115 116.105,152.007 115.375,152.955 114.746 C 153.898 114.122,156.320 113.182,158.337 112.658 C 160.387 112.126,162.702 111.222,163.586 110.610 C 164.560 109.935,166.617 109.172,168.939 108.624 C 171.396 108.045,173.373 107.296,174.612 106.475 C 175.659 105.782,177.164 105.104,177.957 104.968 C 181.288 104.400,183.767 103.593,185.171 102.620 C 186.022 102.030,188.318 101.175,190.503 100.634 C 194.606 99.618,194.957 99.478,196.213 98.353 C 196.660 97.952,198.855 97.192,201.092 96.663 C 203.799 96.024,205.788 95.286,207.037 94.459 C 208.070 93.774,209.564 93.107,210.357 92.975 C 213.321 92.481,216.239 91.500,217.437 90.592 C 219.344 89.148,221.031 88.813,225.748 88.944 L 230.095 89.064 231.481 90.732 " stroke="none" fill="#364990" fill-rule="evenodd"></path></g></svg>